<mxfile host="app.diagrams.net" modified="2023-07-24T07:19:51.047Z" agent="Mozilla/5.0 (Windows NT 10.0; Win64; x64) AppleWebKit/537.36 (KHTML, like Gecko) Chrome/115.0.0.0 Safari/537.36" etag="Qp77mVb44VVMz5gKewNp" version="21.6.5" type="google">
  <diagram name="Page-1" id="LhgFmsVcu8ArwkQBSXOU">
    <mxGraphModel grid="1" page="1" gridSize="10" guides="1" tooltips="1" connect="1" arrows="1" fold="1" pageScale="1" pageWidth="850" pageHeight="1100" math="0" shadow="0">
      <root>
        <mxCell id="0" />
        <mxCell id="1" parent="0" />
        <mxCell id="3hHL_ZOIM24acb1oDl9e-30" value="" style="ellipse;html=1;shape=endState;fillColor=#000000;strokeColor=#ff0000;" vertex="1" parent="1">
          <mxGeometry x="1150" y="345" width="30" height="30" as="geometry" />
        </mxCell>
        <mxCell id="3hHL_ZOIM24acb1oDl9e-33" value="" style="ellipse;html=1;shape=endState;fillColor=#000000;strokeColor=#ff0000;" vertex="1" parent="1">
          <mxGeometry x="1370" y="175" width="30" height="30" as="geometry" />
        </mxCell>
        <mxCell id="3hHL_ZOIM24acb1oDl9e-39" value="" style="ellipse;html=1;shape=startState;fillColor=#000000;strokeColor=#ff0000;" vertex="1" parent="1">
          <mxGeometry x="210" y="170" width="30" height="30" as="geometry" />
        </mxCell>
        <mxCell id="3hHL_ZOIM24acb1oDl9e-40" value="" style="edgeStyle=orthogonalEdgeStyle;html=1;verticalAlign=bottom;endArrow=open;endSize=8;strokeColor=#ff0000;rounded=0;" edge="1" parent="1" source="3hHL_ZOIM24acb1oDl9e-39">
          <mxGeometry relative="1" as="geometry">
            <mxPoint x="340" y="185" as="targetPoint" />
          </mxGeometry>
        </mxCell>
        <mxCell id="3hHL_ZOIM24acb1oDl9e-41" value="Current Account" style="rounded=1;whiteSpace=wrap;html=1;arcSize=40;fontColor=#000000;fillColor=#ffffc0;strokeColor=#ff0000;" vertex="1" parent="1">
          <mxGeometry x="340" y="170" width="120" height="40" as="geometry" />
        </mxCell>
        <mxCell id="3hHL_ZOIM24acb1oDl9e-42" value="" style="edgeStyle=orthogonalEdgeStyle;html=1;verticalAlign=bottom;endArrow=open;endSize=8;strokeColor=#ff0000;rounded=0;" edge="1" parent="1" source="3hHL_ZOIM24acb1oDl9e-41">
          <mxGeometry relative="1" as="geometry">
            <mxPoint x="550" y="190" as="targetPoint" />
            <mxPoint x="400" y="250" as="sourcePoint" />
          </mxGeometry>
        </mxCell>
        <mxCell id="3hHL_ZOIM24acb1oDl9e-43" value="Validate details" style="rounded=1;whiteSpace=wrap;html=1;arcSize=40;fontColor=#000000;fillColor=#ffffc0;strokeColor=#ff0000;" vertex="1" parent="1">
          <mxGeometry x="550" y="170" width="120" height="40" as="geometry" />
        </mxCell>
        <mxCell id="3hHL_ZOIM24acb1oDl9e-44" value="" style="edgeStyle=orthogonalEdgeStyle;html=1;verticalAlign=bottom;endArrow=open;endSize=8;strokeColor=#ff0000;rounded=0;exitX=1;exitY=0.5;exitDx=0;exitDy=0;" edge="1" parent="1" source="3hHL_ZOIM24acb1oDl9e-43">
          <mxGeometry relative="1" as="geometry">
            <mxPoint x="780" y="190" as="targetPoint" />
            <mxPoint x="670" y="230" as="sourcePoint" />
          </mxGeometry>
        </mxCell>
        <mxCell id="3hHL_ZOIM24acb1oDl9e-46" value="Send details" style="text;html=1;align=center;verticalAlign=middle;resizable=0;points=[];autosize=1;strokeColor=none;fillColor=none;" vertex="1" parent="1">
          <mxGeometry x="460" y="140" width="90" height="30" as="geometry" />
        </mxCell>
        <mxCell id="3hHL_ZOIM24acb1oDl9e-47" value="valid ?" style="rhombus;whiteSpace=wrap;html=1;fontColor=#000000;fillColor=#ffffc0;strokeColor=#ff0000;" vertex="1" parent="1">
          <mxGeometry x="780" y="120" width="100" height="140" as="geometry" />
        </mxCell>
        <mxCell id="3hHL_ZOIM24acb1oDl9e-49" value="" style="edgeStyle=orthogonalEdgeStyle;html=1;align=left;verticalAlign=top;endArrow=open;endSize=8;strokeColor=#ff0000;rounded=0;" edge="1" parent="1" source="3hHL_ZOIM24acb1oDl9e-47">
          <mxGeometry x="-1" relative="1" as="geometry">
            <mxPoint x="830" y="340" as="targetPoint" />
            <Array as="points">
              <mxPoint x="830" y="240" />
            </Array>
          </mxGeometry>
        </mxCell>
        <mxCell id="3hHL_ZOIM24acb1oDl9e-50" value="Create Account details" style="rounded=1;whiteSpace=wrap;html=1;arcSize=40;fontColor=#000000;fillColor=#ffffc0;strokeColor=#ff0000;" vertex="1" parent="1">
          <mxGeometry x="770" y="340" width="120" height="40" as="geometry" />
        </mxCell>
        <mxCell id="3hHL_ZOIM24acb1oDl9e-51" value="" style="edgeStyle=orthogonalEdgeStyle;html=1;verticalAlign=bottom;endArrow=open;endSize=8;strokeColor=#ff0000;rounded=0;exitX=1;exitY=0.5;exitDx=0;exitDy=0;" edge="1" parent="1" source="3hHL_ZOIM24acb1oDl9e-50">
          <mxGeometry relative="1" as="geometry">
            <mxPoint x="960" y="360" as="targetPoint" />
          </mxGeometry>
        </mxCell>
        <mxCell id="3hHL_ZOIM24acb1oDl9e-52" value="confirm user" style="rounded=1;whiteSpace=wrap;html=1;arcSize=40;fontColor=#000000;fillColor=#ffffc0;strokeColor=#ff0000;" vertex="1" parent="1">
          <mxGeometry x="960" y="340" width="120" height="40" as="geometry" />
        </mxCell>
        <mxCell id="3hHL_ZOIM24acb1oDl9e-53" value="" style="edgeStyle=orthogonalEdgeStyle;html=1;verticalAlign=bottom;endArrow=open;endSize=8;strokeColor=#ff0000;rounded=0;" edge="1" parent="1" source="3hHL_ZOIM24acb1oDl9e-52">
          <mxGeometry relative="1" as="geometry">
            <mxPoint x="1150" y="360" as="targetPoint" />
          </mxGeometry>
        </mxCell>
        <mxCell id="3hHL_ZOIM24acb1oDl9e-54" value="if the validation is successful" style="text;html=1;align=center;verticalAlign=middle;resizable=0;points=[];autosize=1;strokeColor=none;fillColor=none;" vertex="1" parent="1">
          <mxGeometry x="660" y="260" width="170" height="30" as="geometry" />
        </mxCell>
        <mxCell id="3hHL_ZOIM24acb1oDl9e-57" value="reject details" style="rounded=1;whiteSpace=wrap;html=1;arcSize=40;fontColor=#000000;fillColor=#ffffc0;strokeColor=#ff0000;" vertex="1" parent="1">
          <mxGeometry x="990" y="170" width="120" height="40" as="geometry" />
        </mxCell>
        <mxCell id="3hHL_ZOIM24acb1oDl9e-58" value="" style="edgeStyle=orthogonalEdgeStyle;html=1;verticalAlign=bottom;endArrow=open;endSize=8;strokeColor=#ff0000;rounded=0;exitX=1;exitY=0.5;exitDx=0;exitDy=0;" edge="1" parent="1" source="3hHL_ZOIM24acb1oDl9e-47">
          <mxGeometry relative="1" as="geometry">
            <mxPoint x="990" y="190" as="targetPoint" />
          </mxGeometry>
        </mxCell>
        <mxCell id="3hHL_ZOIM24acb1oDl9e-59" value="convey message" style="rounded=1;whiteSpace=wrap;html=1;arcSize=40;fontColor=#000000;fillColor=#ffffc0;strokeColor=#ff0000;" vertex="1" parent="1">
          <mxGeometry x="1200" y="170" width="120" height="40" as="geometry" />
        </mxCell>
        <mxCell id="3hHL_ZOIM24acb1oDl9e-60" value="" style="edgeStyle=orthogonalEdgeStyle;html=1;verticalAlign=bottom;endArrow=open;endSize=8;strokeColor=#ff0000;rounded=0;exitX=1;exitY=0.5;exitDx=0;exitDy=0;" edge="1" parent="1" source="3hHL_ZOIM24acb1oDl9e-57">
          <mxGeometry relative="1" as="geometry">
            <mxPoint x="1200" y="190" as="targetPoint" />
          </mxGeometry>
        </mxCell>
        <mxCell id="3hHL_ZOIM24acb1oDl9e-61" value="if the validation not is successful" style="text;html=1;align=center;verticalAlign=middle;resizable=0;points=[];autosize=1;strokeColor=none;fillColor=none;" vertex="1" parent="1">
          <mxGeometry x="870" y="128" width="190" height="30" as="geometry" />
        </mxCell>
        <mxCell id="3hHL_ZOIM24acb1oDl9e-63" value="" style="edgeStyle=orthogonalEdgeStyle;html=1;verticalAlign=bottom;endArrow=open;endSize=8;strokeColor=#ff0000;rounded=0;exitX=1;exitY=0.5;exitDx=0;exitDy=0;" edge="1" parent="1" source="3hHL_ZOIM24acb1oDl9e-59">
          <mxGeometry relative="1" as="geometry">
            <mxPoint x="1370" y="190" as="targetPoint" />
            <mxPoint x="1400" y="170" as="sourcePoint" />
          </mxGeometry>
        </mxCell>
        <mxCell id="3hHL_ZOIM24acb1oDl9e-64" value="idle" style="text;html=1;align=center;verticalAlign=middle;resizable=0;points=[];autosize=1;strokeColor=none;fillColor=none;" vertex="1" parent="1">
          <mxGeometry x="280" y="145" width="40" height="30" as="geometry" />
        </mxCell>
        <mxCell id="3hHL_ZOIM24acb1oDl9e-65" value="" style="ellipse;html=1;shape=endState;fillColor=#000000;strokeColor=#ff0000;" vertex="1" parent="1">
          <mxGeometry x="610" y="650" width="30" height="30" as="geometry" />
        </mxCell>
        <mxCell id="3hHL_ZOIM24acb1oDl9e-69" value="" style="edgeStyle=orthogonalEdgeStyle;html=1;verticalAlign=bottom;endArrow=open;endSize=8;strokeColor=#ff0000;rounded=0;" edge="1" parent="1">
          <mxGeometry relative="1" as="geometry">
            <mxPoint x="500" y="500" as="targetPoint" />
            <mxPoint x="409.9999999999998" y="500" as="sourcePoint" />
          </mxGeometry>
        </mxCell>
        <mxCell id="3hHL_ZOIM24acb1oDl9e-70" value="Bank" style="rounded=1;whiteSpace=wrap;html=1;arcSize=40;fontColor=#000000;fillColor=#ffffc0;strokeColor=#ff0000;" vertex="1" parent="1">
          <mxGeometry x="500" y="480" width="120" height="40" as="geometry" />
        </mxCell>
        <mxCell id="3hHL_ZOIM24acb1oDl9e-71" value="" style="edgeStyle=orthogonalEdgeStyle;html=1;verticalAlign=bottom;endArrow=open;endSize=8;strokeColor=#ff0000;rounded=0;exitX=1;exitY=0.5;exitDx=0;exitDy=0;" edge="1" parent="1" source="3hHL_ZOIM24acb1oDl9e-70">
          <mxGeometry relative="1" as="geometry">
            <mxPoint x="730" y="500" as="targetPoint" />
            <mxPoint x="620" y="540" as="sourcePoint" />
          </mxGeometry>
        </mxCell>
        <mxCell id="3hHL_ZOIM24acb1oDl9e-72" value="Send request" style="text;html=1;align=center;verticalAlign=middle;resizable=0;points=[];autosize=1;strokeColor=none;fillColor=none;" vertex="1" parent="1">
          <mxGeometry x="410" y="450" width="90" height="30" as="geometry" />
        </mxCell>
        <mxCell id="3hHL_ZOIM24acb1oDl9e-73" value="valid ?" style="rhombus;whiteSpace=wrap;html=1;fontColor=#000000;fillColor=#ffffc0;strokeColor=#ff0000;" vertex="1" parent="1">
          <mxGeometry x="730" y="430" width="100" height="140" as="geometry" />
        </mxCell>
        <mxCell id="3hHL_ZOIM24acb1oDl9e-74" value="" style="edgeStyle=orthogonalEdgeStyle;html=1;align=left;verticalAlign=top;endArrow=open;endSize=8;strokeColor=#ff0000;rounded=0;entryX=0.5;entryY=0;entryDx=0;entryDy=0;" edge="1" parent="1" source="3hHL_ZOIM24acb1oDl9e-73" target="3hHL_ZOIM24acb1oDl9e-65">
          <mxGeometry x="-1" relative="1" as="geometry">
            <mxPoint x="780" y="650" as="targetPoint" />
            <Array as="points">
              <mxPoint x="780" y="620" />
              <mxPoint x="625" y="620" />
            </Array>
          </mxGeometry>
        </mxCell>
        <mxCell id="3hHL_ZOIM24acb1oDl9e-75" value="&amp;nbsp; &amp;nbsp;confirm message&amp;nbsp; send in user" style="rounded=1;whiteSpace=wrap;html=1;arcSize=40;fontColor=#000000;fillColor=#ffffc0;strokeColor=#ff0000;" vertex="1" parent="1">
          <mxGeometry x="730" y="650" width="115" height="40" as="geometry" />
        </mxCell>
        <mxCell id="3hHL_ZOIM24acb1oDl9e-77" value="Money take it&amp;nbsp; sent to message user" style="rounded=1;whiteSpace=wrap;html=1;arcSize=40;fontColor=#000000;fillColor=#ffffc0;strokeColor=#ff0000;" vertex="1" parent="1">
          <mxGeometry x="910" y="650" width="170" height="40" as="geometry" />
        </mxCell>
        <mxCell id="3hHL_ZOIM24acb1oDl9e-79" value="not enough money" style="text;html=1;align=center;verticalAlign=middle;resizable=0;points=[];autosize=1;strokeColor=none;fillColor=none;" vertex="1" parent="1">
          <mxGeometry x="660" y="580" width="120" height="30" as="geometry" />
        </mxCell>
        <mxCell id="3hHL_ZOIM24acb1oDl9e-80" value="Data Base" style="rounded=1;whiteSpace=wrap;html=1;arcSize=40;fontColor=#000000;fillColor=#ffffc0;strokeColor=#ff0000;" vertex="1" parent="1">
          <mxGeometry x="940" y="480" width="120" height="40" as="geometry" />
        </mxCell>
        <mxCell id="3hHL_ZOIM24acb1oDl9e-81" value="" style="edgeStyle=orthogonalEdgeStyle;html=1;verticalAlign=bottom;endArrow=open;endSize=8;strokeColor=#ff0000;rounded=0;exitX=1;exitY=0.5;exitDx=0;exitDy=0;" edge="1" parent="1" source="3hHL_ZOIM24acb1oDl9e-73">
          <mxGeometry relative="1" as="geometry">
            <mxPoint x="940" y="500" as="targetPoint" />
          </mxGeometry>
        </mxCell>
        <mxCell id="3hHL_ZOIM24acb1oDl9e-84" value="enough money" style="text;html=1;align=center;verticalAlign=middle;resizable=0;points=[];autosize=1;strokeColor=none;fillColor=none;" vertex="1" parent="1">
          <mxGeometry x="840" y="455" width="100" height="30" as="geometry" />
        </mxCell>
        <mxCell id="3hHL_ZOIM24acb1oDl9e-86" value="idle" style="text;html=1;align=center;verticalAlign=middle;resizable=0;points=[];autosize=1;strokeColor=none;fillColor=none;" vertex="1" parent="1">
          <mxGeometry x="230" y="455" width="40" height="30" as="geometry" />
        </mxCell>
        <mxCell id="3hHL_ZOIM24acb1oDl9e-91" value="" style="ellipse;html=1;shape=startState;fillColor=#000000;strokeColor=#ff0000;" vertex="1" parent="1">
          <mxGeometry x="190" y="485" width="30" height="30" as="geometry" />
        </mxCell>
        <mxCell id="3hHL_ZOIM24acb1oDl9e-92" value="" style="edgeStyle=orthogonalEdgeStyle;html=1;verticalAlign=bottom;endArrow=open;endSize=8;strokeColor=#ff0000;rounded=0;entryX=0;entryY=0.5;entryDx=0;entryDy=0;" edge="1" parent="1" source="3hHL_ZOIM24acb1oDl9e-91">
          <mxGeometry relative="1" as="geometry">
            <mxPoint x="289.9999999999998" y="500" as="targetPoint" />
            <Array as="points">
              <mxPoint x="240" y="500" />
              <mxPoint x="240" y="500" />
            </Array>
          </mxGeometry>
        </mxCell>
        <mxCell id="3hHL_ZOIM24acb1oDl9e-96" value="Withdraw money" style="rounded=1;whiteSpace=wrap;html=1;arcSize=40;fontColor=#000000;fillColor=#ffffc0;strokeColor=#ff0000;" vertex="1" parent="1">
          <mxGeometry x="290" y="480" width="120" height="40" as="geometry" />
        </mxCell>
        <mxCell id="s9lDhGZr_GCPoZ6Njrhr-1" value="Withdraw money" style="text;html=1;align=center;verticalAlign=middle;resizable=0;points=[];autosize=1;strokeColor=none;fillColor=none;" vertex="1" parent="1">
          <mxGeometry x="615" y="458" width="110" height="30" as="geometry" />
        </mxCell>
        <mxCell id="apRYlzBvr7YCLT5drbuW-8" value="" style="edgeStyle=orthogonalEdgeStyle;html=1;verticalAlign=bottom;endArrow=open;endSize=8;strokeColor=#ff0000;rounded=0;exitX=0.5;exitY=1;exitDx=0;exitDy=0;" edge="1" parent="1" source="3hHL_ZOIM24acb1oDl9e-80" target="3hHL_ZOIM24acb1oDl9e-77">
          <mxGeometry relative="1" as="geometry">
            <mxPoint x="1010" y="600" as="targetPoint" />
            <Array as="points">
              <mxPoint x="1000" y="630" />
              <mxPoint x="1000" y="630" />
            </Array>
          </mxGeometry>
        </mxCell>
        <mxCell id="apRYlzBvr7YCLT5drbuW-13" value="" style="edgeStyle=orthogonalEdgeStyle;html=1;verticalAlign=bottom;endArrow=open;endSize=8;strokeColor=#ff0000;rounded=0;exitX=0;exitY=0.5;exitDx=0;exitDy=0;" edge="1" parent="1" source="3hHL_ZOIM24acb1oDl9e-75">
          <mxGeometry relative="1" as="geometry">
            <mxPoint x="640" y="670" as="targetPoint" />
          </mxGeometry>
        </mxCell>
        <mxCell id="apRYlzBvr7YCLT5drbuW-14" value="" style="ellipse;html=1;shape=endState;fillColor=#000000;strokeColor=#ff0000;" vertex="1" parent="1">
          <mxGeometry x="710" y="1020" width="30" height="30" as="geometry" />
        </mxCell>
        <mxCell id="apRYlzBvr7YCLT5drbuW-15" value="" style="edgeStyle=orthogonalEdgeStyle;html=1;verticalAlign=bottom;endArrow=open;endSize=8;strokeColor=#ff0000;rounded=0;" edge="1" parent="1">
          <mxGeometry relative="1" as="geometry">
            <mxPoint x="600" y="870" as="targetPoint" />
            <mxPoint x="509.9999999999998" y="870" as="sourcePoint" />
          </mxGeometry>
        </mxCell>
        <mxCell id="apRYlzBvr7YCLT5drbuW-16" value="Bank Server" style="rounded=1;whiteSpace=wrap;html=1;arcSize=40;fontColor=#000000;fillColor=#ffffc0;strokeColor=#ff0000;" vertex="1" parent="1">
          <mxGeometry x="600" y="850" width="120" height="40" as="geometry" />
        </mxCell>
        <mxCell id="apRYlzBvr7YCLT5drbuW-17" value="" style="edgeStyle=orthogonalEdgeStyle;html=1;verticalAlign=bottom;endArrow=open;endSize=8;strokeColor=#ff0000;rounded=0;exitX=1;exitY=0.5;exitDx=0;exitDy=0;" edge="1" parent="1" source="apRYlzBvr7YCLT5drbuW-16">
          <mxGeometry relative="1" as="geometry">
            <mxPoint x="830" y="870" as="targetPoint" />
            <mxPoint x="720" y="910" as="sourcePoint" />
          </mxGeometry>
        </mxCell>
        <mxCell id="apRYlzBvr7YCLT5drbuW-18" value="Send request" style="text;html=1;align=center;verticalAlign=middle;resizable=0;points=[];autosize=1;strokeColor=none;fillColor=none;" vertex="1" parent="1">
          <mxGeometry x="510" y="820" width="90" height="30" as="geometry" />
        </mxCell>
        <mxCell id="apRYlzBvr7YCLT5drbuW-19" value="valid ?" style="rhombus;whiteSpace=wrap;html=1;fontColor=#000000;fillColor=#ffffc0;strokeColor=#ff0000;" vertex="1" parent="1">
          <mxGeometry x="830" y="800" width="100" height="140" as="geometry" />
        </mxCell>
        <mxCell id="apRYlzBvr7YCLT5drbuW-20" value="" style="edgeStyle=orthogonalEdgeStyle;html=1;align=left;verticalAlign=top;endArrow=open;endSize=8;strokeColor=#ff0000;rounded=0;entryX=0.5;entryY=0;entryDx=0;entryDy=0;" edge="1" parent="1" source="apRYlzBvr7YCLT5drbuW-19" target="apRYlzBvr7YCLT5drbuW-14">
          <mxGeometry x="-1" relative="1" as="geometry">
            <mxPoint x="880" y="1020" as="targetPoint" />
            <Array as="points">
              <mxPoint x="880" y="990" />
              <mxPoint x="725" y="990" />
            </Array>
          </mxGeometry>
        </mxCell>
        <mxCell id="apRYlzBvr7YCLT5drbuW-21" value="confirm message send in user" style="rounded=1;whiteSpace=wrap;html=1;arcSize=40;fontColor=#000000;fillColor=#ffffc0;strokeColor=#ff0000;" vertex="1" parent="1">
          <mxGeometry x="830" y="1020" width="115" height="40" as="geometry" />
        </mxCell>
        <mxCell id="apRYlzBvr7YCLT5drbuW-22" value="" style="edgeStyle=orthogonalEdgeStyle;html=1;verticalAlign=bottom;endArrow=open;endSize=8;strokeColor=#ff0000;rounded=0;exitX=1;exitY=0.5;exitDx=0;exitDy=0;" edge="1" parent="1" source="apRYlzBvr7YCLT5drbuW-21">
          <mxGeometry relative="1" as="geometry">
            <mxPoint x="1010" y="1040" as="targetPoint" />
          </mxGeometry>
        </mxCell>
        <mxCell id="apRYlzBvr7YCLT5drbuW-23" value="Check balance" style="rounded=1;whiteSpace=wrap;html=1;arcSize=40;fontColor=#000000;fillColor=#ffffc0;strokeColor=#ff0000;" vertex="1" parent="1">
          <mxGeometry x="1010" y="1020" width="170" height="40" as="geometry" />
        </mxCell>
        <mxCell id="apRYlzBvr7YCLT5drbuW-24" value="not enough money" style="text;html=1;align=center;verticalAlign=middle;resizable=0;points=[];autosize=1;strokeColor=none;fillColor=none;" vertex="1" parent="1">
          <mxGeometry x="760" y="950" width="120" height="30" as="geometry" />
        </mxCell>
        <mxCell id="apRYlzBvr7YCLT5drbuW-25" value="Data Base" style="rounded=1;whiteSpace=wrap;html=1;arcSize=40;fontColor=#000000;fillColor=#ffffc0;strokeColor=#ff0000;" vertex="1" parent="1">
          <mxGeometry x="1040" y="850" width="120" height="40" as="geometry" />
        </mxCell>
        <mxCell id="apRYlzBvr7YCLT5drbuW-26" value="" style="edgeStyle=orthogonalEdgeStyle;html=1;verticalAlign=bottom;endArrow=open;endSize=8;strokeColor=#ff0000;rounded=0;exitX=1;exitY=0.5;exitDx=0;exitDy=0;" edge="1" parent="1" source="apRYlzBvr7YCLT5drbuW-19">
          <mxGeometry relative="1" as="geometry">
            <mxPoint x="1040" y="870" as="targetPoint" />
          </mxGeometry>
        </mxCell>
        <mxCell id="apRYlzBvr7YCLT5drbuW-28" value="idle" style="text;html=1;align=center;verticalAlign=middle;resizable=0;points=[];autosize=1;strokeColor=none;fillColor=none;" vertex="1" parent="1">
          <mxGeometry x="330" y="825" width="40" height="30" as="geometry" />
        </mxCell>
        <mxCell id="apRYlzBvr7YCLT5drbuW-29" value="" style="ellipse;html=1;shape=startState;fillColor=#000000;strokeColor=#ff0000;" vertex="1" parent="1">
          <mxGeometry x="290" y="855" width="30" height="30" as="geometry" />
        </mxCell>
        <mxCell id="apRYlzBvr7YCLT5drbuW-30" value="" style="edgeStyle=orthogonalEdgeStyle;html=1;verticalAlign=bottom;endArrow=open;endSize=8;strokeColor=#ff0000;rounded=0;entryX=0;entryY=0.5;entryDx=0;entryDy=0;" edge="1" parent="1" source="apRYlzBvr7YCLT5drbuW-29">
          <mxGeometry relative="1" as="geometry">
            <mxPoint x="389.9999999999998" y="870" as="targetPoint" />
            <Array as="points">
              <mxPoint x="340" y="870" />
              <mxPoint x="340" y="870" />
            </Array>
          </mxGeometry>
        </mxCell>
        <mxCell id="apRYlzBvr7YCLT5drbuW-31" value="Check Balance" style="rounded=1;whiteSpace=wrap;html=1;arcSize=40;fontColor=#000000;fillColor=#ffffc0;strokeColor=#ff0000;" vertex="1" parent="1">
          <mxGeometry x="390" y="850" width="120" height="40" as="geometry" />
        </mxCell>
        <mxCell id="apRYlzBvr7YCLT5drbuW-32" value="Current balance request" style="text;html=1;align=center;verticalAlign=middle;resizable=0;points=[];autosize=1;strokeColor=none;fillColor=none;" vertex="1" parent="1">
          <mxGeometry x="695" y="828" width="150" height="30" as="geometry" />
        </mxCell>
        <mxCell id="apRYlzBvr7YCLT5drbuW-33" value="" style="edgeStyle=orthogonalEdgeStyle;html=1;verticalAlign=bottom;endArrow=open;endSize=8;strokeColor=#ff0000;rounded=0;exitX=0.5;exitY=1;exitDx=0;exitDy=0;" edge="1" parent="1" source="apRYlzBvr7YCLT5drbuW-25" target="apRYlzBvr7YCLT5drbuW-23">
          <mxGeometry relative="1" as="geometry">
            <mxPoint x="1110" y="970" as="targetPoint" />
            <Array as="points">
              <mxPoint x="1100" y="1000" />
              <mxPoint x="1100" y="1000" />
            </Array>
          </mxGeometry>
        </mxCell>
        <mxCell id="apRYlzBvr7YCLT5drbuW-34" value="" style="edgeStyle=orthogonalEdgeStyle;html=1;verticalAlign=bottom;endArrow=open;endSize=8;strokeColor=#ff0000;rounded=0;exitX=0;exitY=0.5;exitDx=0;exitDy=0;" edge="1" parent="1" source="apRYlzBvr7YCLT5drbuW-21">
          <mxGeometry relative="1" as="geometry">
            <mxPoint x="740" y="1040" as="targetPoint" />
          </mxGeometry>
        </mxCell>
        <mxCell id="apRYlzBvr7YCLT5drbuW-36" value="" style="edgeStyle=orthogonalEdgeStyle;html=1;verticalAlign=bottom;endArrow=open;endSize=8;strokeColor=#ff0000;rounded=0;exitX=0;exitY=0.5;exitDx=0;exitDy=0;entryX=1;entryY=0.5;entryDx=0;entryDy=0;" edge="1" parent="1" source="3hHL_ZOIM24acb1oDl9e-77" target="3hHL_ZOIM24acb1oDl9e-75">
          <mxGeometry relative="1" as="geometry">
            <mxPoint x="1310" y="600" as="targetPoint" />
          </mxGeometry>
        </mxCell>
        <mxCell id="apRYlzBvr7YCLT5drbuW-37" value="" style="ellipse;html=1;shape=endState;fillColor=#000000;strokeColor=#ff0000;" vertex="1" parent="1">
          <mxGeometry x="710" y="1330" width="30" height="30" as="geometry" />
        </mxCell>
        <mxCell id="apRYlzBvr7YCLT5drbuW-38" value="" style="edgeStyle=orthogonalEdgeStyle;html=1;verticalAlign=bottom;endArrow=open;endSize=8;strokeColor=#ff0000;rounded=0;" edge="1" parent="1">
          <mxGeometry relative="1" as="geometry">
            <mxPoint x="600" y="1180" as="targetPoint" />
            <mxPoint x="509.9999999999998" y="1180" as="sourcePoint" />
          </mxGeometry>
        </mxCell>
        <mxCell id="apRYlzBvr7YCLT5drbuW-39" value="Bank Server" style="rounded=1;whiteSpace=wrap;html=1;arcSize=40;fontColor=#000000;fillColor=#ffffc0;strokeColor=#ff0000;" vertex="1" parent="1">
          <mxGeometry x="600" y="1160" width="120" height="40" as="geometry" />
        </mxCell>
        <mxCell id="apRYlzBvr7YCLT5drbuW-40" value="" style="edgeStyle=orthogonalEdgeStyle;html=1;verticalAlign=bottom;endArrow=open;endSize=8;strokeColor=#ff0000;rounded=0;exitX=1;exitY=0.5;exitDx=0;exitDy=0;" edge="1" parent="1" source="apRYlzBvr7YCLT5drbuW-39">
          <mxGeometry relative="1" as="geometry">
            <mxPoint x="830" y="1180" as="targetPoint" />
            <mxPoint x="720" y="1220" as="sourcePoint" />
          </mxGeometry>
        </mxCell>
        <mxCell id="apRYlzBvr7YCLT5drbuW-41" value="Send request" style="text;html=1;align=center;verticalAlign=middle;resizable=0;points=[];autosize=1;strokeColor=none;fillColor=none;" vertex="1" parent="1">
          <mxGeometry x="510" y="1130" width="90" height="30" as="geometry" />
        </mxCell>
        <mxCell id="apRYlzBvr7YCLT5drbuW-42" value="valid ?" style="rhombus;whiteSpace=wrap;html=1;fontColor=#000000;fillColor=#ffffc0;strokeColor=#ff0000;" vertex="1" parent="1">
          <mxGeometry x="830" y="1110" width="100" height="140" as="geometry" />
        </mxCell>
        <mxCell id="apRYlzBvr7YCLT5drbuW-43" value="" style="edgeStyle=orthogonalEdgeStyle;html=1;align=left;verticalAlign=top;endArrow=open;endSize=8;strokeColor=#ff0000;rounded=0;entryX=0.5;entryY=0;entryDx=0;entryDy=0;" edge="1" parent="1" source="apRYlzBvr7YCLT5drbuW-42" target="apRYlzBvr7YCLT5drbuW-37">
          <mxGeometry x="-1" relative="1" as="geometry">
            <mxPoint x="880" y="1330" as="targetPoint" />
            <Array as="points">
              <mxPoint x="880" y="1300" />
              <mxPoint x="725" y="1300" />
            </Array>
          </mxGeometry>
        </mxCell>
        <mxCell id="apRYlzBvr7YCLT5drbuW-44" value="confirm message send in user" style="rounded=1;whiteSpace=wrap;html=1;arcSize=40;fontColor=#000000;fillColor=#ffffc0;strokeColor=#ff0000;" vertex="1" parent="1">
          <mxGeometry x="830" y="1330" width="115" height="40" as="geometry" />
        </mxCell>
        <mxCell id="apRYlzBvr7YCLT5drbuW-45" value="" style="edgeStyle=orthogonalEdgeStyle;html=1;verticalAlign=bottom;endArrow=open;endSize=8;strokeColor=#ff0000;rounded=0;exitX=1;exitY=0.5;exitDx=0;exitDy=0;" edge="1" parent="1" source="apRYlzBvr7YCLT5drbuW-44">
          <mxGeometry relative="1" as="geometry">
            <mxPoint x="1010" y="1350" as="targetPoint" />
          </mxGeometry>
        </mxCell>
        <mxCell id="apRYlzBvr7YCLT5drbuW-46" value="Check balance" style="rounded=1;whiteSpace=wrap;html=1;arcSize=40;fontColor=#000000;fillColor=#ffffc0;strokeColor=#ff0000;" vertex="1" parent="1">
          <mxGeometry x="1010" y="1330" width="170" height="40" as="geometry" />
        </mxCell>
        <mxCell id="apRYlzBvr7YCLT5drbuW-47" value="not enough money" style="text;html=1;align=center;verticalAlign=middle;resizable=0;points=[];autosize=1;strokeColor=none;fillColor=none;" vertex="1" parent="1">
          <mxGeometry x="760" y="1260" width="120" height="30" as="geometry" />
        </mxCell>
        <mxCell id="apRYlzBvr7YCLT5drbuW-48" value="Data Base" style="rounded=1;whiteSpace=wrap;html=1;arcSize=40;fontColor=#000000;fillColor=#ffffc0;strokeColor=#ff0000;" vertex="1" parent="1">
          <mxGeometry x="1040" y="1160" width="120" height="40" as="geometry" />
        </mxCell>
        <mxCell id="apRYlzBvr7YCLT5drbuW-49" value="" style="edgeStyle=orthogonalEdgeStyle;html=1;verticalAlign=bottom;endArrow=open;endSize=8;strokeColor=#ff0000;rounded=0;exitX=1;exitY=0.5;exitDx=0;exitDy=0;" edge="1" parent="1" source="apRYlzBvr7YCLT5drbuW-42">
          <mxGeometry relative="1" as="geometry">
            <mxPoint x="1040" y="1180" as="targetPoint" />
          </mxGeometry>
        </mxCell>
        <mxCell id="apRYlzBvr7YCLT5drbuW-50" value="idle" style="text;html=1;align=center;verticalAlign=middle;resizable=0;points=[];autosize=1;strokeColor=none;fillColor=none;" vertex="1" parent="1">
          <mxGeometry x="330" y="1135" width="40" height="30" as="geometry" />
        </mxCell>
        <mxCell id="apRYlzBvr7YCLT5drbuW-51" value="" style="ellipse;html=1;shape=startState;fillColor=#000000;strokeColor=#ff0000;" vertex="1" parent="1">
          <mxGeometry x="290" y="1165" width="30" height="30" as="geometry" />
        </mxCell>
        <mxCell id="apRYlzBvr7YCLT5drbuW-52" value="" style="edgeStyle=orthogonalEdgeStyle;html=1;verticalAlign=bottom;endArrow=open;endSize=8;strokeColor=#ff0000;rounded=0;entryX=0;entryY=0.5;entryDx=0;entryDy=0;" edge="1" parent="1" source="apRYlzBvr7YCLT5drbuW-51">
          <mxGeometry relative="1" as="geometry">
            <mxPoint x="389.9999999999998" y="1180" as="targetPoint" />
            <Array as="points">
              <mxPoint x="340" y="1180" />
              <mxPoint x="340" y="1180" />
            </Array>
          </mxGeometry>
        </mxCell>
        <mxCell id="apRYlzBvr7YCLT5drbuW-53" value="" style="rounded=1;whiteSpace=wrap;html=1;arcSize=40;fontColor=#000000;fillColor=#ffffc0;strokeColor=#ff0000;" vertex="1" parent="1">
          <mxGeometry x="390" y="1160" width="120" height="40" as="geometry" />
        </mxCell>
        <mxCell id="apRYlzBvr7YCLT5drbuW-54" value="Current balance request" style="text;html=1;align=center;verticalAlign=middle;resizable=0;points=[];autosize=1;strokeColor=none;fillColor=none;" vertex="1" parent="1">
          <mxGeometry x="695" y="1138" width="150" height="30" as="geometry" />
        </mxCell>
        <mxCell id="apRYlzBvr7YCLT5drbuW-55" value="" style="edgeStyle=orthogonalEdgeStyle;html=1;verticalAlign=bottom;endArrow=open;endSize=8;strokeColor=#ff0000;rounded=0;exitX=0.5;exitY=1;exitDx=0;exitDy=0;" edge="1" parent="1" source="apRYlzBvr7YCLT5drbuW-48" target="apRYlzBvr7YCLT5drbuW-46">
          <mxGeometry relative="1" as="geometry">
            <mxPoint x="1110" y="1280" as="targetPoint" />
            <Array as="points">
              <mxPoint x="1100" y="1310" />
              <mxPoint x="1100" y="1310" />
            </Array>
          </mxGeometry>
        </mxCell>
        <mxCell id="apRYlzBvr7YCLT5drbuW-56" value="" style="edgeStyle=orthogonalEdgeStyle;html=1;verticalAlign=bottom;endArrow=open;endSize=8;strokeColor=#ff0000;rounded=0;exitX=0;exitY=0.5;exitDx=0;exitDy=0;" edge="1" parent="1" source="apRYlzBvr7YCLT5drbuW-44">
          <mxGeometry relative="1" as="geometry">
            <mxPoint x="740" y="1350" as="targetPoint" />
          </mxGeometry>
        </mxCell>
        <mxCell id="jWgHid5MBWgJrRrn1tO4-1" value="&lt;font style=&quot;font-size: 18px;&quot;&gt;&lt;b&gt;Current Account&lt;/b&gt;&lt;/font&gt;" style="text;html=1;align=center;verticalAlign=middle;resizable=0;points=[];autosize=1;strokeColor=none;fillColor=none;" vertex="1" parent="1">
          <mxGeometry x="140" y="33" width="160" height="40" as="geometry" />
        </mxCell>
      </root>
    </mxGraphModel>
  </diagram>
</mxfile>
